<?xml version="1.0" encoding="UTF-8"?>
<svg id="letters" xmlns="http://www.w3.org/2000/svg" width="96" height="96" viewBox="0 0 96 96">
  <path id="U_x2B_0076" d="M79.8467,47.9998c0-11.654-6.296-21.8604-15.6619-27.4114-.0469-.0304-.0853-.069-.134-.0974-.0549-.032-.1139-.0487-.1698-.0775-3.3903-1.9593-7.1691-3.3161-11.1952-3.9124-.0356-.0051-.0707-.0095-.1063-.0135-1.4963-.2165-3.0242-.334-4.5795-.334-17.5605,0-31.8467,14.2861-31.8467,31.8462,0,11.6515,6.293,21.8559,15.655,27.4078.0492.032.0896.0725.1409.1024.0886.0517.1804.0918.2714.1349,4.6554,2.6677,10.04,4.2015,15.7794,4.2015,1.8333,0,3.6279-.1643,5.3773-.4632.0129-.0025.0259-.0042.0386-.0069,14.9884-2.5799,26.4307-15.6628,26.4307-31.3766ZM23.1533,47.9998c0-13.1042,10.1998-23.8642,23.076-24.7761l-15.1395,25.946c-.9736,1.6699-.4102,3.813,1.2598,4.7871.5547.3237,1.1611.4775,1.7607.4775,1.2031,0,2.375-.6216,3.0264-1.7363l16.8157-28.8187c1.1747.29,2.3159.6641,3.4185,1.1149l-24.782,42.4737c-5.7421-4.5551-9.4356-11.5862-9.4356-19.4681ZM38.6295,71.006l24.782-42.4736c5.7419,4.5551,9.4352,11.5859,9.4352,19.4674,0,10.829-6.9662,20.0564-16.6504,23.4511v-9.3811l9.9883-17.1169c.9736-1.6699.4102-3.813-1.2598-4.7871-1.6689-.9746-3.8115-.4116-4.7871,1.2588l-10.4648,17.9336c-.0359.0615-.0549.1275-.0867.1902-.0563.1109-.11.2217-.1544.339-.0411.1084-.0721.2174-.1018.3278-.0289.1072-.0563.2138-.075.3249-.0215.1276-.0314.2543-.0386.3823-.0039.0675-.0201.1315-.0201.2v11.6937c-.3966.0189-.7951.0304-1.1963.0304-3.3143,0-6.4767-.6575-9.3705-1.8405Z"/>
</svg>