<?xml version="1.0" encoding="UTF-8"?>
<svg id="letters" xmlns="http://www.w3.org/2000/svg" width="96" height="96" viewBox="0 0 96 96">
  <path id="U_x2B_006D" d="M79.0887,41.1173c-.0107-.0679-.0314-.1323-.0461-.1991-3.2297-14.1615-15.9171-24.7646-31.0432-24.7646-13.1852,0-24.5239,8.0554-29.3553,19.5031-.0288.0638-.0521.1295-.0771.1953-1.5518,3.7459-2.4133,7.8475-2.4133,12.1479,0,17.5605,14.2861,31.8467,31.8457,31.8467s31.8467-14.2861,31.8467-31.8467c0-2.3634-.2667-4.6645-.7574-6.8824ZM47.9995,23.1536c11.5078,0,21.2109,7.8654,24.0226,18.5018-3.9915,15.348-15.1401,16.8911-20.5226,16.6852v-21.2505c0-1.9331-1.5674-3.5-3.5-3.5h-20.2213c4.5099-6.3109,11.8905-10.4365,20.2213-10.4365ZM47.9995,72.8464c-13.7002,0-24.8457-11.146-24.8457-24.8467,0-2.5797.3959-5.0685,1.1288-7.4097h20.2169v20.8789c0,1.6631,1.1699,3.0962,2.7988,3.4292,1.4336.293,3.1113.4727,4.9404.4727,5.6627-.0003,12.7581-1.7355,18.4193-7.1954-3.8954,8.6393-12.5831,14.671-22.6585,14.671Z"/>
</svg>