<?xml version="1.0" encoding="UTF-8"?>
<svg id="punctuation" xmlns="http://www.w3.org/2000/svg" width="96" height="96" viewBox="0 0 96 96">
  <g id="U_x2B_002D">
    <path d="M59.4267,79.314c-.2246,0-.4512-.0215-.6797-.0664-3.5693-.7021-6.9648-2.0029-10.0918-3.8643-1.6611-.9893-2.2061-3.1377-1.2178-4.7979.9893-1.6621,3.1396-2.2061,4.7979-1.2178,2.4375,1.4512,5.083,2.4639,7.8633,3.0107,1.8965.373,3.1318,2.2139,2.7588,4.1104-.3291,1.668-1.792,2.8252-3.4307,2.8252Z"/>
    <path d="M40.5498,65.9781c-1.1934,0-2.3564-.6113-3.0107-1.7109-2.9199-4.9062-4.4629-10.5322-4.4629-16.2676s1.543-11.3613,4.4629-16.2676c.9883-1.6611,3.1377-2.2041,4.7979-1.2178,1.6611.9883,2.2061,3.1367,1.2178,4.7979-2.2754,3.8242-3.4785,8.2109-3.4785,12.6875s1.2031,8.8633,3.4785,12.6875c.9883,1.6611.4434,3.8096-1.2178,4.7979-.5615.334-1.1777.4932-1.7871.4932Z"/>
    <path d="M50.4472,27.1256c-1.1924,0-2.3555-.6104-3.0107-1.7109-.9883-1.6602-.4434-3.8086,1.2178-4.7979,3.1289-1.8623,6.5254-3.1631,10.0928-3.8652,1.9033-.3701,3.7373.8633,4.1104,2.7588.373,1.8975-.8623,3.7373-2.7588,4.1104-2.7793.5459-5.4258,1.5596-7.8642,3.0117-.5605.334-1.1777.4932-1.7871.4932Z"/>
  </g>
</svg>