<?xml version="1.0" encoding="UTF-8"?>
<svg id="other_symbols" xmlns="http://www.w3.org/2000/svg" width="96" height="96" viewBox="0 0 96 96">
  <g id="U_x2B_0029">
    <path d="M46.3276,64.2446c-1.9326,0-3.5-1.5674-3.5-3.5v-25.4893c0-1.9326,1.5674-3.5,3.5-3.5s3.5,1.5674,3.5,3.5v25.4893c0,1.9326-1.5674,3.5-3.5,3.5Z"/>
    <path d="M33.8267,16.1538c-1.9326,0-3.5,1.5674-3.5,3.5v56.6924c0,1.9326,1.5674,3.5,3.5,3.5,17.5605,0,31.8467-14.2861,31.8467-31.8457s-14.2861-31.8467-31.8467-31.8467ZM37.3267,72.5949V23.4051c12.0483,1.7068,21.3467,12.0835,21.3467,24.5954s-9.2984,22.8877-21.3467,24.5944Z"/>
  </g>
</svg>