<?xml version="1.0" encoding="UTF-8"?>
<svg id="letters" xmlns="http://www.w3.org/2000/svg" width="96" height="96" viewBox="0 0 96 96">
  <path id="U_x2B_0063" d="M48,16.1536c-17.5605,0-31.8467,14.2861-31.8467,31.8462s14.2861,31.8467,31.8467,31.8467,31.8467-14.2861,31.8467-31.8467-14.2861-31.8462-31.8467-31.8462ZM70.6548,58.1838h-15.8608v-6.8711h17.8253c-.3237,2.4172-.9955,4.7242-1.9645,6.8711ZM48,72.8464c-13.7007,0-24.8467-11.146-24.8467-24.8467s11.146-24.8462,24.8467-24.8462c12.4479,0,22.7848,9.2014,24.5716,21.1592h-17.7776v-7.1982c0-1.9331-1.5669-3.5-3.5-3.5h-20.1021c-1.2256,0-2.3618.6411-2.9956,1.6899-.6338,1.0493-.6729,2.3535-.1025,3.4385l9.4595,18c.8994,1.7114,3.0161,2.3701,4.7266,1.4697,1.7109-.8989,2.3691-3.0151,1.4697-4.7266l-6.7642-12.8716h10.8086v7.0771c-.0014.0411-.0122.0796-.0122.1211s.0108.08.0122.1211v13.75c0,1.9331,1.5669,3.5,3.5,3.5h14.6266c-4.525,4.7171-10.8833,7.6626-17.9206,7.6626Z"/>
</svg>