<?xml version="1.0" encoding="UTF-8"?>
<svg id="numbers" xmlns="http://www.w3.org/2000/svg" width="96" height="96" viewBox="0 0 96 96">
  <path id="U_x2B_0034" d="M79.8462,47.9998c0-17.5601-14.2861-31.8462-31.8467-31.8462s-31.8457,14.2861-31.8457,31.8462c0,13.6293,8.6081,25.2816,20.6708,29.8177.0406.0179.0825.0325.1239.049,3.4445,1.2787,7.1671,1.98,11.051,1.98s7.6056-.7011,11.0497-1.9794c.0427-.0168.0856-.0319.1274-.0504,12.0623-4.5366,20.6696-16.1882,20.6696-29.817ZM41.6987,42.8142c-.0254-.6235-.0488-1.2129-.002-1.7017.2441-2.5234,1.874-5.0098,3.876-5.9111.708-.3193,1.5244-.481,2.4268-.481s1.7197.1616,2.4277.481c2.002.9014,3.6318,3.3877,3.875,5.9102.0479.4897.0244,1.0791-.001,1.7026-.0166.437-.0332.874-.0332,1.3105v13.377h-12.5361v-13.377c0-.4365-.0166-.8735-.0332-1.3105ZM23.1538,47.9998c0-13.7002,11.1455-24.8462,24.8457-24.8462s24.8467,11.146,24.8467,24.8462c0,8.8235-4.6271,16.5819-11.5781,20.9913v-24.8663c0-.3442.0146-.689.0283-1.0337.0312-.791.0664-1.6875-.0264-2.6504-.4844-5.0229-3.6865-9.6934-7.9678-11.6221-1.6182-.7285-3.4023-1.0981-5.3027-1.0981s-3.6836.3696-5.3018,1.0981c-4.2812,1.9287-7.4834,6.5991-7.9688,11.623-.0918.9619-.0566,1.8584-.0254,2.6494.0137.3447.0283.6895.0283,1.0337v24.8668c-6.9512-4.4094-11.5781-12.168-11.5781-20.9918ZM41.7319,72.0443v-7.5425h12.5361v7.5422c-2.0034.5227-4.1038.8025-6.2686.8025s-4.2645-.2797-6.2676-.8022Z"/>
</svg>