<?xml version="1.0" encoding="UTF-8"?>
<svg id="letters" xmlns="http://www.w3.org/2000/svg" width="96" height="96" viewBox="0 0 96 96">
  <path id="U_x2B_006E" d="M75.1111,64.6857c.0529-.0857.1076-.1701.1597-.2563.0066-.0131.0154-.0249.0219-.038.0821-.1362.158-.2762.2382-.4137.0881-.1256.1586-.2623.2298-.3992,2.5968-4.6091,4.0859-9.9219,4.0859-15.5786,0-17.5601-14.2861-31.8462-31.8467-31.8462s-31.8467,14.2861-31.8467,31.8462c0,5.6567,1.4891,10.9695,4.0859,15.5786.0712.137.1417.2736.2298.3992.1335.2292.2657.459.4047.6845.0607.0992.1172.1998.1881.2932,5.6459,8.9381,15.6069,14.8912,26.9382,14.8912,11.3162,0,21.2654-5.9374,26.9153-14.8557.0749-.0962.1318-.2024.1958-.3051ZM47.6602,52.2698c6.3167,0,12.1234,2.2407,16.545,6.2046H31.8533c4.378-4.0012,9.8652-6.2046,15.8068-6.2046ZM72.8467,47.9998c0,2.7772-.4648,5.4462-1.3093,7.9418-5.0872-5.8375-12.1498-9.5308-20.0374-10.441v-22.0958c12.0483,1.7067,21.3467,12.083,21.3467,24.5949ZM44.5,23.4048v22.0489c-7.6737.8164-14.7466,4.5706-20.0073,10.5768-.8637-2.5211-1.3394-5.2206-1.3394-8.0308,0-12.5119,9.2984-22.8882,21.3467-24.5949ZM48,72.8464c-6.893,0-13.1377-2.8233-17.6434-7.3721h35.2867c-4.5057,4.5488-10.7504,7.3721-17.6434,7.3721Z"/>
</svg>