<?xml version="1.0" encoding="UTF-8"?>
<svg id="numbers" xmlns="http://www.w3.org/2000/svg" width="96" height="96" viewBox="0 0 96 96">
  <g id="U_x2B_0036">
    <path d="M53.5234,67.9119c-.6768,0-1.3613-.1958-1.9629-.605-1.5996-1.0859-2.0156-3.2622-.9297-4.8618l9.3447-13.7627c1.0859-1.5996,3.2646-2.0156,4.8613-.9292,1.5996,1.0859,2.0156,3.2622.9297,4.8618l-9.3447,13.7627c-.6768.9971-1.7783,1.5342-2.8984,1.5342Z"/>
    <path d="M48,16.1536c-17.5605,0-31.8467,14.2861-31.8467,31.8462s14.2861,31.8467,31.8467,31.8467,31.8467-14.2861,31.8467-31.8467-14.2861-31.8462-31.8467-31.8462ZM23.1533,47.9998c0-13.7002,11.1465-24.8462,24.8467-24.8462,5.7718,0,11.0858,1.9838,15.3085,5.2979h-22.1747c-.0622,0-.1201.0151-.1815.0183-.1254.0065-.249.0178-.3735.0377-.1088.0175-.2142.0404-.3193.0676-.1123.029-.2222.0626-.332.103-.1091.0403-.2139.0857-.3176.1362-.0986.0479-.1946.0993-.2896.1572-.106.0646-.2058.1353-.304.2104-.0502.0383-.1055.0652-.1541.1066-.0352.03-.0601.0668-.0938.0978-.0895.0826-.1711.1711-.2516.2626-.0738.0837-.1466.1667-.2111.2558-.0662.0912-.1229.1875-.1801.285-.0579.099-.1155.1969-.163.3002-.0465.1005-.0825.2051-.1194.3105-.0382.1096-.0756.2181-.1026.3304-.0253.1046-.0407.2115-.0563.3195-.0178.1229-.0324.2446-.0372.3687-.0017.045-.0134.0872-.0134.1326,0,.0631.0153.122.0186.1843.0065.124.0176.2462.0372.3693.0176.11.0408.2168.0685.3231.0287.1111.0621.2198.102.3284.0406.1102.0864.2161.1375.3207.0474.0975.0983.1925.1555.2864.0654.1072.1367.2083.2129.3076.0377.0492.064.1035.1047.1512l9.305,10.9118-15.1723,22.3451c-5.7503-4.5547-9.4501-11.591-9.4501-19.4796ZM48,72.8464c-3.3022,0-6.4533-.653-9.3385-1.8278l16.4039-24.159c.0399-.0587.0632-.1229.0991-.1831.0659-.1108.1298-.2211.1826-.3373.0457-.1003.0815-.2017.1171-.3044.0378-.1094.0739-.2181.1005-.3303.0267-.1122.0441-.2242.0596-.3376.0149-.109.028-.2169.0325-.3268.0047-.1136.0008-.2254-.0056-.3386-.0061-.1123-.0143-.2231-.0313-.3347-.0167-.1094-.0416-.2159-.0686-.3234-.0276-.1105-.0571-.2194-.0958-.3275-.0388-.1085-.0865-.2124-.136-.317-.0468-.0986-.0937-.196-.1504-.2911-.0645-.1086-.1393-.2101-.216-.312-.0427-.0567-.0735-.1188-.1202-.1736l-6.1149-7.1709h20.7137c2.1664,3.6857,3.4149,7.9728,3.4149,12.5483,0,13.7007-11.1465,24.8467-24.8467,24.8467Z"/>
  </g>
</svg>