<?xml version="1.0" encoding="UTF-8"?>
<svg id="punctuation" xmlns="http://www.w3.org/2000/svg" width="96" height="96" viewBox="0 0 96 96">
  <g id="U_x2B_003F">
    <path d="M58.9919,79.3148c-.2241,0-.4512-.0215-.6792-.0664-11.9917-2.3594-21.6841-11.5391-24.6929-23.3887-.4756-1.873.6577-3.7783,2.5312-4.2539,1.8755-.4756,3.7788.6572,4.2539,2.5312,2.3467,9.2422,9.9062,16.4033,19.2583,18.2422,1.897.373,3.1318,2.2139,2.7588,4.1104-.3281,1.668-1.792,2.8252-3.4302,2.8252Z"/>
    <path d="M37.0148,44.5023c-.2852,0-.5747-.0352-.8638-.1084-1.8735-.4756-3.0068-2.3809-2.5308-4.2539.7485-2.9492,1.9189-5.7744,3.478-8.3955.9883-1.6611,3.1362-2.207,4.7974-1.2188,1.6616.9873,2.207,3.1357,1.2192,4.7969-1.2153,2.043-2.127,4.2432-2.7104,6.54-.4023,1.585-1.8262,2.6396-3.3896,2.6396Z"/>
    <path d="M50.0041,27.1322c-1.1929,0-2.3555-.6104-3.0103-1.71-.9893-1.6602-.4453-3.8086,1.2153-4.7979,3.1323-1.8662,6.5317-3.1689,10.103-3.8721,1.8945-.375,3.7368.8613,4.1099,2.7588.3735,1.8965-.8618,3.7363-2.7583,4.1104-2.7822.5469-5.4307,1.5625-7.8716,3.0166-.5615.334-1.1787.4941-1.7881.4941Z"/>
  </g>
</svg>