<?xml version="1.0" encoding="UTF-8"?>
<svg id="additional_letters" xmlns="http://www.w3.org/2000/svg" width="96" height="96" viewBox="0 0 96 96">
  <path id="U_x2B_002A" d="M47.9998,16.1536c-17.5601,0-31.8462,14.2861-31.8462,31.8462s14.2861,31.8467,31.8462,31.8467,31.8467-14.2861,31.8467-31.8467-14.2861-31.8462-31.8467-31.8462ZM47.9998,23.1536c10.9738,0,20.3021,7.1536,23.5833,17.0399l-8.8885,8.0485c-3.5903-4.3312-8.9616-6.9223-14.6948-6.9223-5.8133,0-11.131,2.5741-14.7019,6.9154l-8.8809-8.0416c3.2812-9.8863,12.6095-17.0399,23.5828-17.0399ZM23.1664,48.5037l8.472,7.6713c.0337.0305.0724.051.1069.0799.0829.0695.1704.1328.2607.195.1061.0734.2136.1411.3252.2014.0424.0228.0775.0537.1212.075.0383.0187.0789.0244.1176.0415.1622.0721.3273.1293.4963.1754.0707.0194.1398.0436.211.0584.2235.0462.4493.074.6761.0762.0103,0,.0204.0035.0307.0035.2127,0,.4225-.0264.6299-.0645.0568-.0103.1122-.0223.1685-.0354.1871-.0439.3707-.0995.548-.1732.0256-.0106.0513-.0191.0767-.0303.1867-.0829.3632-.1871.5337-.3019.0481-.0325.0949-.0657.1417-.1008.1757-.1315.3433-.2748.4935-.4401.0018-.0019.0039-.0031.0057-.0051.0087-.0096.0139-.0208.0225-.0305.1256-.1419.238-.2976.3411-.4623.038-.0604.0726-.1214.1065-.1835.0258-.0474.0568-.0901.0807-.1391,1.5131-3.1028,4.1896-5.332,7.3672-6.2823v23.763c-11.8855-1.6837-21.0868-11.806-21.3334-24.0914ZM51.4998,72.5952v-23.7382c2.9453.8954,5.4979,2.8832,7.0474,5.6448.046.0821.107.1493.1584.2262.1497.432.3863.8418.7126,1.202.6909.7632,1.6411,1.1509,2.5952,1.1509.8379,0,1.6782-.2988,2.3481-.9058l8.472-7.6713c-.2466,12.2854-9.448,22.4078-21.3339,24.0914Z"/>
</svg>