<?xml version="1.0" encoding="UTF-8"?>
<svg id="numbers" xmlns="http://www.w3.org/2000/svg" width="96" height="96" viewBox="0 0 96 96">
  <path id="U_x2B_0032" d="M54.5401,16.8317c-.0291-.0065-.0573-.0143-.0866-.02-2.0848-.4308-4.243-.6581-6.4535-.6581s-4.3687.2274-6.4535.6581c-.0294.0057-.0575.0135-.0866.02-14.4335,3.0249-25.3066,15.8493-25.3066,31.168,0,2.6818.3369,5.2857.9641,7.7755.0065.0308.0138.0608.0211.0914,3.5114,13.7679,16.0153,23.9798,30.8615,23.9798,17.5605,0,31.8467-14.2861,31.8467-31.8467,0-15.3187-10.8731-28.1431-25.3066-31.168ZM38.7192,24.9585v17.7161c-2.9764-.9064-6.8445-1.4532-10.7251-.1895-1.7047.5547-3.2534,1.4088-4.6555,2.5321,1.0967-9.1193,7.1487-16.731,15.3806-20.0587ZM24.2484,55.2967c1.4868-3.2719,3.4586-5.3456,5.8815-6.1456,3.1557-1.041,6.6125.0919,8.5894.9748v20.9156c-6.8948-2.7872-12.2644-8.5773-14.4708-15.7448ZM45.7192,72.7374V23.2626c.7516-.0688,1.5115-.109,2.2808-.109s1.5291.0402,2.2808.109v49.4749c-.7516.0688-1.5115.109-2.2808.109s-1.5291-.0402-2.2808-.109ZM57.2808,71.0415V24.9585c9.1154,3.6848,15.5659,12.6213,15.5659,23.0413s-6.4506,19.3569-15.5659,23.0417Z"/>
</svg>