<?xml version="1.0" encoding="UTF-8"?>
<svg id="letters" xmlns="http://www.w3.org/2000/svg" width="96" height="96" viewBox="0 0 96 96">
  <path id="U_x2B_0075" d="M47.9995,16.1536c-8.3092,0-15.8823,3.2021-21.5587,8.4332-.0755.0686-.1579.1258-.2285.2021-.0161.0175-.0261.038-.0418.0556-6.1602,5.8107-10.0168,14.0387-10.0168,23.1553s3.8546,17.3405,10.0118,23.1511c.0171.0193.0282.0418.0458.0609.0688.0745.15.1287.2235.1959,5.677,5.2344,13.2524,8.4389,21.5646,8.4389,17.5605,0,31.8467-14.2861,31.8467-31.8467s-14.2861-31.8462-31.8467-31.8462ZM28.785,32.2671c3.6048,4.4126,5.6276,9.9815,5.6276,15.7327s-2.0233,11.3203-5.6276,15.7331c-3.5168-4.2876-5.6312-9.7676-5.6312-15.7331s2.1144-11.4451,5.6312-15.7327ZM47.9995,72.8464c-5.2142,0-10.0559-1.6179-14.0565-4.3734,4.0319-4.8109,6.5747-10.7309,7.2704-16.9733h11.2953l-7.9166,9.7529c-1.2178,1.5005-.9893,3.7046.5117,4.9229.6494.5269,1.4287.7827,2.2041.7827,1.0176,0,2.0273-.4419,2.7197-1.2944l12.5345-15.4421c.0029-.0035.0056-.0069.0084-.0103l.0049-.006c.0234-.0289.0376-.0619.06-.0913.0084-.0111.0146-.0233.0229-.0344.0673-.0904.1285-.1836.187-.2805.0352-.0585.0789-.1125.1105-.1727.0242-.046.0381-.0948.0601-.1415.0453-.0961.0836-.1945.1202-.2951.0233-.0643.055-.1256.0745-.191.0162-.0543.0225-.1099.0359-.1647.0239-.097.0413-.1952.0568-.2952.0106-.0677.0294-.1337.0359-.202.0062-.0643.0012-.1284.0038-.1928.002-.049.0145-.0949.0145-.1443s-.0125-.0954-.0145-.1443c-.0026-.0645.0023-.1285-.0038-.1929-.0066-.0682-.0255-.1343-.036-.202-.0156-.0999-.0329-.1979-.0567-.2949-.0135-.0551-.0198-.1108-.0361-.1653-.0195-.0654-.0512-.1265-.0745-.1908-.0364-.1003-.0746-.1984-.1197-.2942-.0222-.0472-.0364-.0966-.0609-.1431-.0314-.0599-.0751-.1136-.1101-.1719-.0585-.0969-.1197-.1901-.187-.2805-.0009-.0011-.0015-.0023-.0023-.0035-.0296-.0397-.0491-.0839-.0806-.1227l-.0067-.0083c-.0015-.0018-.003-.0037-.0045-.0056l-12.5366-15.4442c-1.2207-1.5005-3.4248-1.7305-4.9238-.5112-1.501,1.2183-1.7295,3.4224-.5117,4.9233l7.916,9.752h-11.2948c-.6956-6.2423-3.2381-12.1622-7.2701-16.9731,4.0005-2.7553,8.842-4.3731,14.0562-4.3731,13.7002,0,24.8467,11.146,24.8467,24.8462s-11.1465,24.8467-24.8467,24.8467Z"/>
</svg>