<?xml version="1.0" encoding="UTF-8"?>
<svg id="letters" xmlns="http://www.w3.org/2000/svg" width="96" height="96" viewBox="0 0 96 96">
  <path id="U_x2B_0068" d="M79.8462,47.9998c0-10.0341-4.6694-18.9934-11.9439-24.8349-.1172-.1051-.2381-.2008-.3657-.2875-5.3986-4.2078-12.1771-6.7238-19.5361-6.7238-7.2552,0-13.9475,2.4435-19.3083,6.544-.0742.0537-.1539.0949-.2249.1552-.0319.0271-.0544.0605-.0851.0886-7.4366,5.8348-12.2283,14.8947-12.2283,25.0584,0,17.5605,14.2861,31.8467,31.8467,31.8467,8.3331,0,15.9252-3.2214,21.6069-8.4792.0244-.0197.0517-.0331.0757-.0535.0807-.0686.1425-.15.2154-.2241,6.1198-5.8071,9.9477-14.0073,9.9477-23.0899ZM72.8462,47.9998c0,5.7941-1.9988,11.1268-5.3358,15.3572l-17.0991-20.105,15.1099-12.8508c4.5217,4.5021,7.325,10.7287,7.325,17.5985ZM59.7549,26.1163l-13.8785,11.8035-9.9074-11.649c3.5673-1.9831,7.6688-3.1172,12.0316-3.1172,4.2498,0,8.2527,1.0742,11.7544,2.9628ZM30.379,30.5026l32.0614,37.6976c-3.8431,2.7552-8.4985,4.4415-13.5339,4.6232.0029-.1344.0051-.2723.0051-.4218,0-13.125-10.6777-23.8027-23.8027-23.8027-.6478,0-1.2936.0357-1.9376.0878-.0063-.2289-.0175-.4566-.0175-.687,0-6.8186,2.7624-13.0032,7.2252-17.4971ZM24.3614,55.6418c.2496-.011.4971-.0429.7475-.0429,9.1579,0,16.6158,7.3682,16.7867,16.4865-8.2844-2.101-14.9194-8.3748-17.5342-16.4436Z"/>
</svg>