<?xml version="1.0" encoding="UTF-8"?>
<svg id="other_symbols" xmlns="http://www.w3.org/2000/svg" width="96" height="96" viewBox="0 0 96 96">
  <path id="U_x2B_005B" d="M62.1731,16.1538c-17.5601,0-31.8462,14.2861-31.8462,31.8467s14.2861,31.8457,31.8462,31.8457c1.9331,0,3.5-1.5674,3.5-3.5V19.6538c0-1.9326-1.5669-3.5-3.5-3.5ZM58.6731,23.4051v28.5316c-8.4592-1.8602-15.1566-8.1169-17.7612-16.7805,3.7834-6.2397,10.2361-10.6851,17.7612-11.7511ZM37.3269,48.0005c0-1.1108.0807-2.2026.2227-3.2752,4.6198,7.616,12.1838,12.8237,21.1235,14.3257v13.5439c-12.0482-1.7067-21.3462-12.0825-21.3462-24.5944Z"/>
</svg>