<?xml version="1.0" encoding="UTF-8"?>
<svg id="letters" xmlns="http://www.w3.org/2000/svg" width="96" height="96" viewBox="0 0 96 96">
  <path id="U_x2B_0069" d="M79.8464,47.9998c0-17.5601-14.2861-31.8462-31.8467-31.8462-12.2725,0-22.9384,6.9824-28.2534,17.1791-.0157.0356-.0384.067-.0529.1032-2.2567,4.3682-3.5399,9.3176-3.5399,14.5639,0,17.5605,14.2861,31.8467,31.8462,31.8467,7.4187,0,14.2471-2.5568,19.6667-6.8259.1224-.0785.2336-.178.3475-.2733,7.2114-5.8434,11.8324-14.7641,11.8324-24.7475ZM23.1536,47.9998c0-3.4794.7218-6.7926,2.0189-9.8018,12.2875-.2046,25.2324-.2625,26.943-.0024,1.8008.2769,3.8379,1.0566,4.3296,2.1743.4751,1.0801-.231,3.2051-1.8892,5.6841-1.0747,1.6064-.6436,3.7803.9634,4.855.5977.3999,1.2739.5913,1.9424.5913,1.1294,0,2.2378-.5454,2.9126-1.5547,3.1743-4.7456,4.0083-8.9155,2.4785-12.394-2.0386-4.6343-7.4443-5.9321-9.6743-6.2749-2.392-.3678-14.9927-.2643-23.3955-.1494,4.5412-4.8995,11.0255-7.9736,18.2168-7.9736,13.7007,0,24.8467,11.146,24.8467,24.8462,0,6.6766-2.6519,12.7418-6.9516,17.2108l-19.4288-19.6703c-1.3594-1.376-3.5747-1.3882-4.9497-.0308-1.3755,1.3584-1.3892,3.5747-.0308,4.9497l18.8568,19.0911c-3.6393,2.0925-7.8517,3.2961-12.3426,3.2961-13.7002,0-24.8462-11.146-24.8462-24.8467Z"/>
</svg>