<?xml version="1.0" encoding="UTF-8"?>
<svg id="letters" xmlns="http://www.w3.org/2000/svg" width="96" height="96" viewBox="0 0 96 96">
  <path id="U_x2B_0065" d="M73.0704,67.6028c4.239-5.4094,6.7758-12.2134,6.7758-19.603,0-10.4956-5.1061-19.8184-12.962-25.6235-.0032-.0024-.0054-.0055-.0087-.0079-.0045-.0033-.0095-.005-.014-.0082-3.0915-2.2803-6.6089-4.0113-10.4081-5.0588-.0775-.0226-.1534-.0489-.2319-.066-2.6245-.7021-5.3792-1.0818-8.222-1.0818-17.5596,0-31.8457,14.2861-31.8457,31.8462,0,6.2063,1.791,11.9991,4.8737,16.9013.0719.1342.1572.2602.2472.3853,2.0917,3.2229,4.7452,6.0477,7.8278,8.328.007.0052.012.0121.0191.0173.0127.0093.0267.0152.0394.0244,5.2797,3.8874,11.7942,6.1905,18.8385,6.1905,10.0348,0,18.9946-4.6698,24.8361-11.9451.0381-.0435.0846-.0751.1209-.1208.0447-.0564.0732-.1196.1138-.1777ZM72.8462,47.9998c0,4.5679-1.2445,8.8483-3.4041,12.5299l-16.6216-13.1744,12.5746-17.0737c4.5943,4.5112,7.451,10.7862,7.451,17.7183ZM28.4272,63.2777l28.3638-38.5124c1.0246.389,2.0186.8408,2.9736,1.3564l-29.1617,39.5954c-.7778-.7639-1.5032-1.5797-2.1757-2.4394ZM47.9995,23.1536c.4229,0,.8431.011,1.2609.032l-24.584,33.3802c-.9842-2.6715-1.5225-5.557-1.5225-8.566,0-13.7002,11.1455-24.8462,24.8457-24.8462ZM36.233,69.8775l12.4341-16.8829,16.4217,13.016c-4.4573,4.2313-10.4731,6.8359-17.0893,6.8359-4.2546,0-8.2619-1.0764-11.7665-2.9689Z"/>
</svg>