<?xml version="1.0" encoding="UTF-8"?>
<svg id="letters" xmlns="http://www.w3.org/2000/svg" width="96" height="96" viewBox="0 0 96 96">
  <path id="U_x2B_007A" d="M79.8464,47.9998c0-5.7845-1.558-11.2087-4.2648-15.8891-.07-.1339-.1388-.2676-.2249-.3906-5.5635-9.3135-15.7418-15.5665-27.3569-15.5665s-21.7946,6.254-27.3578,15.5687c-.0818.1171-.1467.2448-.214.3717-2.2432,3.8732-3.6959,8.2567-4.131,12.9338-.0579.2525-.0951.5126-.0951.7826,0,.0684.0163.1323.0201.1997-.0408.6587-.0685,1.3209-.0685,1.9897,0,9.9785,4.6164,18.8955,11.8216,24.7391.0361.0333.063.0726.1008.1047.0984.0834.2058.1478.3102.2185,5.4111,4.2442,12.2192,6.7844,19.6136,6.7844s14.206-2.5414,19.6177-6.7874c.103-.0699.209-.1332.3061-.2156.0373-.0317.064-.0706.0996-.1035,7.2062-5.8435,11.8232-14.761,11.8232-24.7403ZM65.9703,65.1314l-13.424-15.8211h20.2651c-.3196,6.1196-2.8679,11.6553-6.8411,15.8211ZM25.6152,37.2224h44.7697c.7769,1.607,1.3789,3.3123,1.7966,5.0879H23.8185c.4177-1.7756,1.0198-3.4809,1.7966-5.0879ZM65.3336,30.2224H30.6663c4.4802-4.3693,10.596-7.0688,17.3334-7.0688s12.8536,2.6995,17.3339,7.0688ZM23.1885,49.3103h20.2651l-13.4243,15.8209c-3.973-4.1658-6.5213-9.7014-6.8409-15.8209ZM35.5253,69.4742l12.4746-14.7017,12.4744,14.7018c-3.6691,2.1397-7.9294,3.3721-12.4745,3.3721s-8.8053-1.2324-12.4744-3.3722Z"/>
</svg>