<?xml version="1.0" encoding="UTF-8"?>
<svg id="letters" xmlns="http://www.w3.org/2000/svg" width="96" height="96" viewBox="0 0 96 96">
  <path id="U_x2B_0062" d="M72.0374,27.1451c-.0816-.105-.1671-.2055-.2611-.3013-5.8371-6.5529-14.3307-10.6902-23.7761-10.6902-13.2895,0-24.6979,8.1848-29.464,19.7758-.019.0393-.0306.0818-.0482.1219-1.5004,3.6923-2.3345,7.7239-2.3345,11.9485,0,17.5605,14.2861,31.8467,31.8467,31.8467s31.8462-14.2861,31.8462-31.8467c0-7.9717-2.9509-15.2626-7.809-20.8546ZM48.0002,23.1536c6.5858,0,12.5766,2.5804,17.0276,6.7772-4.8596,8.9176-10.7491,11.9557-14.1837,12.9855-.5662-1.5225-1.6183-3.3717-3.5934-5.0713-4.0988-3.5267-10.5589-5.0549-19.2439-4.5762,4.529-6.1304,11.8035-10.1152,19.9934-10.1152ZM23.1536,47.9998c0-2.5645.3908-5.0393,1.1155-7.3685,11.4709-1.407,16.329.8358,18.2302,2.3651,1.7656,1.4204,1.979,2.9531,2.001,3.1772v4.3042h-7.3721c-1.9331,0-3.5,1.5669-3.5,3.5s1.5669,3.5,3.5,3.5h7.3721v15.1174c-12.0486-1.7067-21.3467-12.083-21.3467-24.5954ZM51.5002,72.5952v-22.6317c4.3488-1.0246,11.9143-4.2135,18.1658-14.105,2.0215,3.593,3.1804,7.7333,3.1804,12.1412,0,12.5123-9.298,22.8887-21.3462,24.5954Z"/>
</svg>