<?xml version="1.0" encoding="UTF-8"?>
<svg id="letters" xmlns="http://www.w3.org/2000/svg" width="96" height="96" viewBox="0 0 96 96">
  <path id="U_x2B_0077" d="M48,16.1536c-2.0251,0-4.0038.1982-5.925.5613-.0575.0099-.1149.0179-.1714.0306-14.6533,2.853-25.7503,15.7793-25.7503,31.2543,0,7.8702,2.8756,15.0772,7.6234,20.6407.1389.2009.3012.3873.4839.5584,4.4244,4.9493,10.3675,8.5106,17.0915,9.9445.0359.0081.0707.0178.1071.0248,2.112.4427,4.2993.6783,6.5409.6783,17.5605,0,31.8467-14.2861,31.8467-31.8467s-14.2861-31.8462-31.8467-31.8462ZM50.2715,23.2618v26.0778c-3.331,2.4952-10.0352,9.0411-11.3889,21.7664-2.9069-1.1511-5.5462-2.8327-7.7975-4.9291l14.5516-23.1581c.0447-.0712.0706-.1479.1096-.221.0615-.1147.1248-.2273.1733-.3492.044-.1104.072-.2229.1041-.3356.0303-.1058.0646-.2091.0848-.3188.0253-.1368.0326-.2734.0414-.4109.005-.0764.0228-.1491.0228-.2267v-17.9285c.6041-.0442,1.212-.0744,1.8271-.0744.7661,0,1.5228.04,2.2715.1083ZM39.1729,24.7794v15.368l-12.7072,20.2228c-2.1025-3.6457-3.3123-7.8682-3.3123-12.3705,0-10.5921,6.6652-19.6523,16.0195-23.2203ZM48,72.8464c-.7609,0-1.5123-.0399-2.2559-.1071,1.0856-13.5179,9.3196-18.2464,9.669-18.4402,1.1436-.6074,1.8584-1.7964,1.8584-3.0913v-26.2529c9.12,3.6826,15.5752,12.6215,15.5752,23.0449,0,13.7007-11.1465,24.8467-24.8467,24.8467Z"/>
</svg>