<?xml version="1.0" encoding="UTF-8"?>
<svg id="letters" xmlns="http://www.w3.org/2000/svg" width="96" height="96" viewBox="0 0 96 96">
  <g id="U_x2B_0071">
    <circle cx="48.8186" cy="61.1096" r="5.9634"/>
    <path d="M47.9998,16.1536c-17.5601,0-31.8462,14.2861-31.8462,31.8462,0,7.9955,2.9683,15.3063,7.8522,20.9048.1003.1306.2043.2566.3226.3723,5.8337,6.4839,14.2834,10.5696,23.6714,10.5696,17.5605,0,31.8467-14.2861,31.8467-31.8467s-14.2861-31.8462-31.8467-31.8462ZM27.7462,33.635h19.6647v9.7158c-6.884,1.306-16.6088,5.6944-21.6232,15.7629-1.6814-3.3468-2.6341-7.1202-2.6341-11.114,0-5.3497,1.7051-10.3055,4.5926-14.3647ZM47.9998,72.8464c-6.7456,0-12.8683-2.7059-17.3499-7.0847,4.3673-14.6461,19.7891-15.7979,20.4573-15.8401,1.8535-.104,3.3037-1.6377,3.3037-3.4946v-16.292c0-1.9331-1.5669-3.5-3.5-3.5h-15.5753c3.7113-2.2083,8.041-3.4814,12.6642-3.4814,13.7007,0,24.8467,11.146,24.8467,24.8462s-11.146,24.8467-24.8467,24.8467Z"/>
  </g>
</svg>