<?xml version="1.0" encoding="UTF-8"?>
<svg id="numbers" xmlns="http://www.w3.org/2000/svg" width="96" height="96" viewBox="0 0 96 96">
  <path id="U_x2B_0039" d="M48.0002,16.1538c-17.5605,0-31.8467,14.2861-31.8467,31.8467s14.2861,31.8457,31.8467,31.8457,31.8462-14.2861,31.8462-31.8457-14.2861-31.8467-31.8462-31.8467ZM48.0002,23.1538c13.7002,0,24.8462,11.1465,24.8462,24.8467,0,.1082-.0068.2147-.0082.3226l-14.9303-10.7747c-.0145-.0104-.0308-.0161-.0453-.0262-.1142-.08-.2386-.1436-.3623-.2097-.0809-.0432-.1584-.0948-.2414-.131-.1078-.0472-.2235-.0768-.3367-.1131-.1064-.0341-.2106-.0755-.3188-.0989-.0944-.0205-.1935-.0247-.2906-.0374-.1329-.0172-.265-.0383-.3983-.0402-.0187-.0003-.0361-.0056-.0549-.0056h-30.0717c4.0867-8.1342,12.5056-13.7324,22.2123-13.7324ZM24.4511,55.9077h23.4567l2.8305,16.7843c-.8997.0991-1.8124.1542-2.7381.1542-10.9363,0-20.238-7.1046-23.5491-16.9385ZM57.5413,70.9384l-3.2231-19.1127c-.0034-.0198-.0119-.0372-.0156-.0568-.0245-.1326-.0664-.2575-.1054-.3844-.0295-.0963-.0521-.1954-.0892-.2874-.0461-.1138-.1074-.2181-.1647-.3256-.0502-.0943-.0942-.1923-.1524-.2808-.0635-.0967-.1404-.1819-.2129-.2716-.0687-.0849-.1318-.1741-.2078-.2518-.0832-.0853-.1782-.1569-.2696-.2334-.0798-.0666-.1544-.1385-.2397-.1978-.0994-.0692-.2085-.1227-.3151-.1815-.0906-.0499-.1772-.1058-.2722-.1477-.1023-.045-.2115-.074-.3187-.1093-.111-.0367-.2194-.0783-.3344-.1038-.0975-.0214-.1996-.0273-.2999-.0404-.1313-.0173-.2612-.0377-.3957-.0399-.0198-.0003-.0381-.0059-.058-.0059h-27.6904c-.0109-.3016-.023-.603-.023-.9072,0-1.4019.1226-2.775.3469-4.1143h31.2283l16.7882,12.1155c-2.3038,6.7518-7.4326,12.205-13.9757,14.9366Z"/>
</svg>