<?xml version="1.0" encoding="UTF-8"?>
<svg id="additional_letters" xmlns="http://www.w3.org/2000/svg" width="96" height="96" viewBox="0 0 96 96">
  <g id="U_x2B_002B">
    <path d="M47.9998,67.6223c-10.8198,0-19.6226-8.8027-19.6226-19.6226s8.8027-19.6221,19.6226-19.6221,19.6226,8.8022,19.6226,19.6221-8.8027,19.6226-19.6226,19.6226ZM47.9998,35.3777c-6.96,0-12.6226,5.6621-12.6226,12.6221s5.6626,12.6226,12.6226,12.6226,12.6226-5.6626,12.6226-12.6226-5.6626-12.6221-12.6226-12.6221Z"/>
    <path d="M47.9998,79.8464c-17.5601,0-31.8462-14.2861-31.8462-31.8467s14.2861-31.8462,31.8462-31.8462,31.8467,14.2861,31.8467,31.8462-14.2861,31.8467-31.8467,31.8467ZM47.9998,23.1536c-13.7002,0-24.8462,11.146-24.8462,24.8462s11.146,24.8467,24.8462,24.8467,24.8467-11.146,24.8467-24.8467-11.146-24.8462-24.8467-24.8462Z"/>
  </g>
</svg>