<?xml version="1.0" encoding="UTF-8"?>
<svg id="numbers" xmlns="http://www.w3.org/2000/svg" width="96" height="96" viewBox="0 0 96 96">
  <path id="U_x2B_0035" d="M75.7374,32.3809c-.0753-.146-.1497-.2924-.2468-.4286-5.5325-9.4409-15.78-15.7988-27.4907-15.7988s-21.9606,6.3594-27.4926,15.8021c-.074.1041-.1271.2173-.1884.3273-2.6456,4.6411-4.1656,10.0032-4.1656,15.7168,0,17.5605,14.2861,31.8467,31.8467,31.8467s31.8467-14.2861,31.8467-31.8467c0-5.6733-1.4982-11.0004-4.1093-15.6188ZM68.2136,33.5783l-16.7136,17.7672v-27.9407c6.8729.9736,12.8464,4.769,16.7136,10.1735ZM44.5,23.4048v27.9394l-16.7128-17.767c3.8672-5.4038,9.8404-9.1989,16.7128-10.1724ZM48,72.8464c-13.7002,0-24.8467-11.146-24.8467-24.8467,0-2.722.4464-5.3403,1.259-7.7932l21.0379,22.365c.0123.0131.0275.0216.04.0345.0251.0259.0503.0513.0762.0765.0131.0127.0218.0279.0351.0404.0695.0654.1485.1129.2217.1715.0123.0098.0239.0203.0363.0299.0574.0447.1094.0987.1689.1393.0206.0141.0431.0252.064.0389.1039.0678.2136.1194.3224.175.0601.0308.1154.069.1774.0963.0151.0067.0286.0173.0438.0237.0154.0065.0328.009.0484.0154.1279.0519.2599.0856.3918.1216.0764.0211.1481.0527.2266.0686.0089.0018.018.0016.0269.0034.2213.043.4451.0669.6693.0669.0002,0,.0003,0,.0005,0s.0003,0,.0005,0,.0003,0,.0005,0,.0003,0,.0005,0c.2242,0,.4482-.0239.6694-.0669.0089-.0017.0179-.0016.0267-.0034.0783-.0158.1499-.0475.2262-.0685.132-.0361.2641-.0698.3922-.1218.0156-.0063.033-.0089.0485-.0155.0116-.0049.0218-.0131.0333-.0181.0656-.0286.1239-.0692.1873-.1016.1091-.0557.2189-.1074.323-.1753.0212-.0139.0438-.0253.0647-.0396.0546-.0374.102-.087.1548-.1278.0168-.0129.0326-.0272.0491-.0405.0734-.0587.1525-.1063.2221-.1718.0133-.0125.0221-.0278.0352-.0405.0268-.026.0525-.0524.0785-.0792.0115-.0118.0254-.0196.0367-.0317l21.0389-22.3651c.8126,2.4529,1.259,5.0713,1.259,7.7933,0,13.7007-11.1465,24.8467-24.8467,24.8467Z"/>
</svg>