<?xml version="1.0" encoding="UTF-8"?>
<svg id="additional_letters" xmlns="http://www.w3.org/2000/svg" width="96" height="96" viewBox="0 0 96 96">
  <g id="U_x2B_003D">
    <path d="M55.062,68.6287h-14.124c-1.9331,0-3.5-1.5669-3.5-3.5s1.5669-3.5,3.5-3.5h14.124c1.9331,0,3.5,1.5669,3.5,3.5s-1.5669,3.5-3.5,3.5Z"/>
    <path d="M58.5869,17.9698c-.0759-.033-.1578-.0524-.2363-.0801-3.2476-1.1196-6.7275-1.7361-10.3506-1.7361s-7.103.6166-10.3506,1.7361c-.0786.0276-.1605.0471-.2363.0801-12.3705,4.374-21.2598,16.1806-21.2598,30.03,0,17.5605,14.2861,31.8467,31.8467,31.8467s31.8467-14.2861,31.8467-31.8467c0-13.8494-8.8893-25.6559-21.2598-30.03ZM53.6953,23.8198v23.5583c0,.2217.0063.4458.0137.6704.0078.248.019.5879.0039.6855-.0874.3662-.5029,1.0728-1.209,1.7578-.6831.6626-1.5869,1.1362-2.6152,1.3701-.5737.1309-1.2095.1973-1.8887.1973s-1.3145-.0664-1.8901-.1978c-1.0269-.2334-1.9307-.707-2.6138-1.3696-.7061-.6851-1.1216-1.3916-1.2051-1.7397-.019-.1157-.0078-.4556,0-.7036.0073-.2246.0137-.4487.0137-.6704v-23.5583c1.8303-.4311,3.7353-.6663,5.6953-.6663s3.8651.2352,5.6953.6663ZM48,72.8464c-13.7007,0-24.8467-11.146-24.8467-24.8467,0-9.0644,4.8813-17.0073,12.1514-21.347v20.7255c0,.1475-.0054.2969-.0103.4468-.021.6553-.0498,1.5527.1831,2.5293.5679,2.3882,2.2139,4.2593,3.1445,5.1621,1.604,1.5562,3.6567,2.6528,5.9336,3.1709,1.0835.2466,2.2422.3721,3.4443.3721s2.3608-.125,3.4429-.3721c2.2788-.5181,4.3311-1.6147,5.9351-3.1709.9307-.9028,2.5767-2.7739,3.1445-5.1616.2329-.9771.2041-1.8745.1831-2.5298-.0049-.1499-.0103-.2993-.0103-.4468v-20.7255c7.27,4.3398,12.1514,12.2827,12.1514,21.347,0,13.7007-11.146,24.8467-24.8467,24.8467Z"/>
  </g>
</svg>