<?xml version="1.0" encoding="UTF-8"?>
<svg id="letters" xmlns="http://www.w3.org/2000/svg" width="96" height="96" viewBox="0 0 96 96">
  <path id="U_x2B_006C" d="M66.5881,22.1654c-.0401-.0312-.0715-.0695-.1133-.0992-.0424-.0302-.0893-.0477-.1325-.0757-5.1899-3.6709-11.5161-5.8369-18.3426-5.8369s-13.153,2.1663-18.343,5.8375c-.0429.0278-.0896.0452-.1317.0751-.0417.0297-.0729.0678-.1129.0989-8.0223,5.7883-13.2587,15.2087-13.2587,25.8347,0,17.5605,14.2861,31.8467,31.8462,31.8467s31.8467-14.2861,31.8467-31.8467c0-10.6258-5.2361-20.0461-13.2583-25.8344ZM59.416,25.9426l-11.4161,16.0249-11.4158-16.0249c3.421-1.7778,7.3014-2.7891,11.4158-2.7891s7.9951,1.0112,11.4162,2.7891ZM47.9998,72.8464c-13.7002,0-24.8462-11.146-24.8462-24.8467,0-7.0726,2.9753-13.4594,7.7343-17.9885l14.2614,20.0193c.0318.0447.0746.0755.1082.1182.1089.139.2278.2697.3596.3931.0742.0697.1481.1368.2272.1991.044.0346.0787.0765.1248.1094.1321.0942.2703.1727.4101.2461.0187.0098.0354.0232.0543.0327.2216.1113.4521.1891.6857.2499.0519.0135.1031.025.1556.0361.2392.0506.4803.0851.722.0851.001,0,.002-.0004.0029-.0004s.002.0004.0029.0004c.2413,0,.4821-.0345.7209-.085.0531-.0112.105-.0228.1575-.0365.2331-.0607.4631-.1384.6843-.2495.0197-.0098.037-.0237.0565-.0339.1392-.0731.277-.1513.4086-.2451.0461-.0329.081-.075.1251-.1096.079-.0621.1526-.1292.2267-.1987.132-.1235.251-.2543.3599-.3934.0335-.0427.0763-.0735.1081-.1182l14.2618-20.0193c4.759,4.5291,7.7343,10.9159,7.7343,17.9885,0,13.7007-11.146,24.8467-24.8467,24.8467Z"/>
</svg>