<?xml version="1.0" encoding="UTF-8"?>
<svg id="other_symbols" xmlns="http://www.w3.org/2000/svg" width="96" height="96" viewBox="0 0 96 96">
  <path id="U_x2B_007B" d="M62.1733,16.1538c-17.5605,0-31.8467,14.2861-31.8467,31.8467s14.2861,31.8457,31.8467,31.8457c1.9331,0,3.5-1.5674,3.5-3.5V19.6538c0-1.9326-1.5669-3.5-3.5-3.5ZM58.6733,56.3658c-3.2679-1.3724-5.5693-4.6046-5.5693-8.3654s2.3014-6.993,5.5693-8.3654v16.7307ZM37.3267,48.0005c0-12.5119,9.298-22.8886,21.3467-24.5954v8.9216c-7.1814,1.6033-12.5693,8.0165-12.5693,15.6738s5.3879,14.0705,12.5693,15.6738v8.9206c-12.0486-1.7066-21.3467-12.0825-21.3467-24.5944Z"/>
</svg>