<?xml version="1.0" encoding="UTF-8"?>
<svg id="letters" xmlns="http://www.w3.org/2000/svg" width="96" height="96" viewBox="0 0 96 96">
  <g id="U_x2B_006B">
    <path d="M60.5474,64.3064h-25.0947c-1.9331,0-3.5-1.5669-3.5-3.5s1.5669-3.5,3.5-3.5h25.0947c1.9331,0,3.5,1.5669,3.5,3.5s-1.5669,3.5-3.5,3.5Z"/>
    <path d="M66.5884,22.1654c-.0401-.0312-.0715-.0695-.1133-.0992-.0424-.0302-.0893-.0477-.1325-.0757-5.1899-3.6709-11.5161-5.8369-18.3426-5.8369s-13.153,2.1662-18.343,5.8373c-.043.0279-.0899.0453-.1321.0753-.0418.0298-.0732.068-.1133.0992-8.0222,5.7883-13.2583,15.2086-13.2583,25.8344,0,17.5605,14.2861,31.8467,31.8467,31.8467s31.8467-14.2861,31.8467-31.8467c0-10.6258-5.2361-20.0461-13.2583-25.8344ZM59.4162,25.9426l-11.4162,16.025-11.4162-16.025c3.4211-1.7778,7.3016-2.7891,11.4162-2.7891s7.9951,1.0112,11.4162,2.7891ZM48,72.8464c-13.7007,0-24.8467-11.146-24.8467-24.8467,0-7.0726,2.9753-13.4594,7.7343-17.9885l14.2618,20.0193c.0317.0446.0745.0753.1079.1179.1092.1395.2286.2705.3608.3943.0737.0692.147.1359.2255.1976.0443.0348.0792.077.1255.11.1328.0946.2715.1736.412.2473.018.0093.0341.0222.0522.0313.2217.1115.4525.1894.6862.2502.0519.0135.1029.0249.1553.036.2393.0506.4804.0851.7221.0851.001,0,.002-.0004.0029-.0004s.002.0004.0029.0004c.2413,0,.4821-.0345.7209-.085.0531-.0112.105-.0228.1575-.0365.2331-.0607.4631-.1384.6843-.2495.0197-.0098.037-.0237.0565-.0339.1392-.0731.277-.1513.4086-.2451.0461-.0329.081-.075.1251-.1096.079-.0621.1526-.1292.2267-.1987.132-.1235.251-.2543.3599-.3934.0335-.0427.0763-.0735.1081-.1182l14.2618-20.0193c4.759,4.5291,7.7343,10.9159,7.7343,17.9885,0,13.7007-11.146,24.8467-24.8467,24.8467Z"/>
  </g>
</svg>