<?xml version="1.0" encoding="UTF-8"?>
<svg id="other_symbols" xmlns="http://www.w3.org/2000/svg" width="96" height="96" viewBox="0 0 96 96">
  <path id="U_x2B_005D" d="M56.382,70.4591c5.7385-5.7626,9.2913-13.7032,9.2913-22.4586,0-17.5605-14.2861-31.8467-31.8467-31.8467-1.9326,0-3.5,1.5674-3.5,3.5v56.6924c0,1.9326,1.5674,3.5,3.5,3.5,8.6646,0,16.5278-3.4824,22.2753-9.1156.0993-.0865.1926-.176.2801-.2715ZM58.6733,48.0005c0,5.4192-1.7491,10.4348-4.7054,14.5228-4.3534-4.9883-10.1609-8.5005-16.6413-10.0352v-29.0831c12.0483,1.7068,21.3467,12.0835,21.3467,24.5954ZM37.3267,59.7319c4.5994,1.4201,8.6836,4.1459,11.7627,7.8527-3.3443,2.612-7.3692,4.3879-11.7627,5.0103v-12.863Z"/>
</svg>