<?xml version="1.0" encoding="UTF-8"?>
<svg id="letters" xmlns="http://www.w3.org/2000/svg" width="96" height="96" viewBox="0 0 96 96">
  <g id="U_x2B_0078">
    <circle cx="48" cy="49.2041" r="5.011"/>
    <circle cx="48" cy="32.1665" r="5.011"/>
    <path d="M48.0005,16.1536c-17.5605,0-31.8467,14.2861-31.8467,31.8462s14.2861,31.8467,31.8467,31.8467,31.8457-14.2861,31.8457-31.8467-14.2861-31.8462-31.8457-31.8462ZM61.3892,27.0862v21.6659l-13.3887,14.9468-13.3896-14.9468v-21.6654c3.8675-2.4847,8.4612-3.933,13.3896-3.933s9.5215,1.4481,13.3887,3.9326ZM48.0005,72.8464c-13.7002,0-24.8467-11.146-24.8467-24.8467,0-5.2659,1.6515-10.1507,4.457-14.174v16.2653c0,.0744.0173.1439.0219.2172.0078.1265.0164.2516.038.377.0188.1092.0472.2137.0758.3192.0305.113.0618.2245.1039.3347.0414.1079.0914.2098.1429.3122.05.1.0999.199.1602.295.0657.1046.1406.2007.2168.2975.0469.0598.0817.1253.1331.1827l16.8896,18.854c.0421.0469.0933.0793.1372.1234.0476.0479.0844.1025.1353.1481.0526.0471.1121.0801.1666.1234.0792.063.1581.1236.2415.1788.1181.0784.2398.1451.3643.2075.0801.0401.1579.0828.2404.1164.146.0597.2952.103.4463.142.0681.0176.1337.0422.2026.0557.2224.0434.447.0693.6724.0693.0003,0,.0007-.0001.001-.0001s.0007.0001.001.0001c.2254,0,.4501-.0259.6724-.0693.0688-.0135.1345-.038.2026-.0557.1511-.039.3003-.0823.4463-.142.0825-.0336.1603-.0763.2404-.1164.1245-.0624.2462-.1292.3643-.2075.0833-.0552.1623-.1158.2415-.1788.0546-.0433.1141-.0763.1666-.1234.0509-.0456.0876-.1002.1353-.1481.0439-.0441.0952-.0765.1372-.1234l16.8887-18.854c.0514-.0574.0862-.1229.1331-.1827.0762-.0967.1511-.1929.2168-.2975.0604-.0961.1102-.195.1602-.295.0515-.1024.1015-.2043.1429-.3122.0421-.1102.0734-.2217.1039-.3347.0286-.1055.057-.21.0758-.3192.0215-.1254.0302-.2505.038-.377.0046-.0732.0219-.1428.0219-.2172v-16.2658c2.8055,4.0234,4.457,8.9084,4.457,14.1745,0,13.7007-11.1455,24.8467-24.8457,24.8467Z"/>
  </g>
</svg>