<?xml version="1.0" encoding="UTF-8"?>
<svg id="letters" xmlns="http://www.w3.org/2000/svg" width="96" height="96" viewBox="0 0 96 96">
  <path id="U_x2B_0070" d="M48.0005,16.1536c-2.6242,0-5.1729.3254-7.6141.9267-.0425.0081-.0832.0193-.1251.0289-13.832,3.4668-24.1074,15.9993-24.1074,30.8906,0,6.2209,1.7997,12.0262,4.8958,16.9357.0724.1276.1486.2509.236.3677,5.6831,8.7441,15.5314,14.5433,26.7149,14.5433,17.5596,0,31.8457-14.2861,31.8457-31.8467s-14.2861-31.8462-31.8457-31.8462ZM37.5444,25.4687v8.0555c0,1.9331,1.5674,3.5,3.5,3.5,5.6191,0,9.6836,1.3086,11.7539,3.7847.9891,1.1823,1.4418,2.5292,1.6384,3.6909h-31.0316c1.1974-8.4526,6.6624-15.5472,14.1393-19.0311ZM26.0977,59.7175c-1.3499-2.513-2.277-5.2839-2.6926-8.2178h31.0231v8.2178h-28.3306ZM48.0005,72.8464c-6.2393,0-11.9443-2.3169-16.3127-6.1289h26.2404c1.9326,0,3.5-1.5669,3.5-3.5v-14.9478c.2188-1.5649.666-7.165-3.1729-11.8462-2.9482-3.5952-7.5508-5.6899-13.7109-6.2476v-6.7768c1.1303-.1581,2.2829-.2457,3.4561-.2457,13.7002,0,24.8457,11.146,24.8457,24.8462s-11.1455,24.8467-24.8457,24.8467Z"/>
</svg>