<?xml version="1.0" encoding="UTF-8"?>
<svg id="punctuation" xmlns="http://www.w3.org/2000/svg" width="96" height="96" viewBox="0 0 96 96">
  <g id="U_x2B_002F">
    <path d="M58.9922,79.3146c-.2241,0-.4512-.0215-.6792-.0664-11.9917-2.3594-21.6846-11.5391-24.6934-23.3887-.4756-1.873.6577-3.7783,2.5312-4.2539,1.876-.4756,3.7783.6572,4.2539,2.5312,2.3467,9.2422,9.9062,16.4033,19.2588,18.2422,1.897.373,3.1318,2.2139,2.7588,4.1104-.3281,1.668-1.792,2.8252-3.4302,2.8252Z"/>
    <path d="M37.0151,44.5021c-.2852,0-.5747-.0352-.8638-.1084-1.8735-.4766-3.0068-2.3809-2.5308-4.2539,3.0088-11.8486,12.7012-21.0293,24.6924-23.3877,1.8936-.374,3.7363.8623,4.1094,2.7588s-.8618,3.7373-2.7588,4.1104c-9.3521,1.8389-16.9116,8.999-19.2588,18.2412-.4023,1.585-1.8262,2.6396-3.3896,2.6396Z"/>
  </g>
</svg>