<?xml version="1.0" encoding="UTF-8"?>
<svg id="letters" xmlns="http://www.w3.org/2000/svg" width="96" height="96" viewBox="0 0 96 96">
  <path id="U_x2B_0064" d="M47.9998,16.1536c-17.5601,0-31.8462,14.2861-31.8462,31.8462s14.2861,31.8467,31.8462,31.8467,31.8467-14.2861,31.8467-31.8467-14.2861-31.8462-31.8467-31.8462ZM47.9998,72.8464c-13.7002,0-24.8462-11.146-24.8462-24.8467,0-12.5119,9.298-22.8882,21.3462-24.5949v39.9235c0,1.9331,1.5669,3.5,3.5,3.5s3.5-1.5669,3.5-3.5V23.4048c12.0486,1.7067,21.3467,12.083,21.3467,24.5949,0,13.7007-11.146,24.8467-24.8467,24.8467Z"/>
</svg>