<?xml version="1.0" encoding="UTF-8"?>
<svg id="punctuation" xmlns="http://www.w3.org/2000/svg" width="96" height="96" viewBox="0 0 96 96">
  <g id="U_x2B_0021">
    <path d="M59.4267,79.3146c-.2241,0-.4512-.0215-.6797-.0664-3.5684-.7021-6.9639-2.0029-10.0918-3.8643-1.6611-.9893-2.2061-3.1367-1.2173-4.7979.9878-1.6611,3.1362-2.207,4.7974-1.2178,2.438,1.4512,5.0835,2.4639,7.8633,3.0107,1.8965.373,3.1313,2.2139,2.7583,4.1104-.3281,1.668-1.792,2.8252-3.4302,2.8252Z"/>
    <path d="M40.5507,65.9787c-1.1934,0-2.3564-.6113-3.0112-1.7109-2.9194-4.9053-4.4629-10.5312-4.4629-16.2676,0-15.1807,10.7959-28.3223,25.6709-31.248,1.8955-.374,3.7358.8623,4.1094,2.7588.373,1.8965-.8618,3.7373-2.7588,4.1104-11.6011,2.2812-20.0215,12.5342-20.0215,24.3789,0,4.4766,1.2026,8.8643,3.4785,12.6875.9883,1.6611.4434,3.8086-1.2178,4.7979-.561.334-1.1777.4932-1.7866.4932Z"/>
  </g>
</svg>