<?xml version="1.0" encoding="UTF-8"?>
<svg id="letters" xmlns="http://www.w3.org/2000/svg" width="96" height="96" viewBox="0 0 96 96">
  <g id="U_x2B_006A">
    <circle cx="48.3398" cy="56.0579" r="5.0107"/>
    <path d="M79.8464,47.9998c0-17.5195-14.221-31.7773-31.7253-31.8431-.0121-.0004-.024-.0006-.0361-.0009-.0284,0-.0563-.0021-.0848-.0021-.0294,0-.0583.0021-.0877.0022-.0099.0002-.0198.0005-.0297.0008-17.5065.0639-31.7292,14.3225-31.7292,31.8432,0,9.2026,3.9278,17.5012,10.1898,23.3206.0774.0822.1592.1587.245.2336,5.6595,5.1495,13.1755,8.2925,21.4119,8.2925s15.7523-3.1432,21.4118-8.2928c.0855-.0747.1672-.1511.2444-.233,6.262-5.8193,10.19-14.1181,10.19-23.3209ZM72.8464,47.9998c0,5.3206-1.6865,10.2516-4.5452,14.2985l-14.9619-38.5609c11.1419,2.4503,19.5071,12.3951,19.5071,24.2623ZM42.6612,23.7374l-14.9624,38.5609c-2.8587-4.0469-4.5452-8.9779-4.5452-14.2985,0-11.8672,8.3654-21.8121,19.5076-24.2623ZM33.0585,67.8372l14.9417-38.5075,14.9413,38.5076c-4.1614,3.1422-9.3369,5.0092-14.9412,5.0092s-10.7803-1.867-14.9417-5.0093Z"/>
  </g>
</svg>