<?xml version="1.0" encoding="UTF-8"?>
<svg id="numbers" xmlns="http://www.w3.org/2000/svg" width="96" height="96" viewBox="0 0 96 96">
  <g id="U_x2B_0030">
    <circle cx="43.2004" cy="62.8018" r="3.8953"/>
    <circle cx="32.9404" cy="55.3289" r="3.8953"/>
    <path d="M62.1753,19.4941c-.082-.0432-.1619-.09-.246-.1262-4.2103-2.0566-8.9367-3.2144-13.9295-3.2144-17.5601,0-31.8462,14.2861-31.8462,31.8462s14.2861,31.8467,31.8462,31.8467,31.8467-14.2861,31.8467-31.8467c0-12.4691-7.2071-23.2809-17.6711-28.5057ZM72.8464,47.9998c0,1.2031-.0906,2.3851-.2567,3.543l-18.819-13.7073,7.7623-10.6569c6.8037,4.4373,11.3135,12.1102,11.3135,20.8212ZM55.0568,24.1804l-6.9443,9.5338-11.0247-8.0301c3.2961-1.6183,6.9989-2.5306,10.9119-2.5306,2.4514,0,4.8185.3624,7.0571,1.0269ZM23.1536,47.9998c0-3.3086.6553-6.4655,1.8344-9.3552l27.7862,20.2388v13.4979c-1.546.3022-3.1413.4651-4.7744.4651-13.7002,0-24.8462-11.146-24.8462-24.8467ZM59.7742,69.8737v-12.7709c0-.0812-.0185-.1572-.0239-.2371-.0089-.1294-.0157-.258-.0388-.3855-.0201-.1116-.0531-.2173-.0835-.325-.0309-.1098-.0595-.2192-.1011-.3257-.042-.1072-.0949-.207-.1469-.3087-.051-.1005-.1-.2007-.1609-.2964-.0623-.0975-.1346-.186-.206-.2766-.0685-.0871-.1339-.1752-.2115-.2564-.09-.0943-.1904-.176-.2903-.2598-.061-.051-.1112-.1104-.1765-.1579l-29.7913-21.6993c.7529-.9476,1.5725-1.8388,2.4532-2.667l39.4504,28.7346c-2.2751,4.7796-6.0311,8.723-10.6729,11.2317Z"/>
  </g>
</svg>