<?xml version="1.0" encoding="UTF-8"?>
<svg id="numbers" xmlns="http://www.w3.org/2000/svg" width="96" height="96" viewBox="0 0 96 96">
  <path id="U_x2B_0033" d="M79.8464,47.9998c0-10.2153-4.8401-19.316-12.3415-25.1474-.092-.0839-.1935-.1578-.2957-.2325-5.3439-4.0546-11.9993-6.4663-19.2095-6.4663-8.0082,0-15.3295,2.9777-20.9315,7.8756-.1055.0786-.2028.1686-.3004.2603-6.5095,5.8351-10.6144,14.301-10.6144,23.7103,0,13.3654,8.2795,24.8261,19.9757,29.543.1082.0485.2163.0927.3278.1295,3.5816,1.3982,7.4721,2.1742,11.5427,2.1742,1.3234,0,2.6254-.0906,3.9069-.2482.0904-.0081.1799-.0192.2692-.0343,15.5929-2.0527,27.6706-15.4198,27.6706-31.5641ZM72.8464,47.9998c0,9.9991-5.9402,18.6316-14.4742,22.5695,5.4479-11.5593,7.2004-20.6894,5.1822-27.1866-.5459-1.7573-1.2974-3.0806-2.0493-4.062l4.5822-8.3293c4.1862,4.449,6.7592,10.4322,6.7592,17.0085ZM23.1536,47.9998c0-6.2701,2.3395-12.0009,6.1851-16.3773,6.3027,5.6584,14.5549,14.6022,15.4839,20.078.9608,5.662-4.6101,13.9548-8.2026,18.3754-7.9897-4.1356-13.4664-12.4756-13.4664-22.0761ZM43.6517,72.4577c3.9117-5.2032,9.395-14.1309,8.0722-21.9282-1.4061-8.2889-11.5543-18.5041-17.0299-23.4966,3.8499-2.4519,8.413-3.8793,13.3058-3.8793,4.5703,0,8.8529,1.2457,12.5358,3.4073l-6.4601,11.743c-.4595.8345-.5586,1.8203-.2749,2.7295.2842.9097.9263,1.6641,1.7783,2.0894.0068.0034.793.7354,1.2905,2.3364,1.0007,3.2206,1.3046,11.0001-7.4539,27.3442-.4689.0265-.9403.043-1.4157.043-1.4838,0-2.9351-.1382-4.3481-.3887Z"/>
</svg>