<?xml version="1.0" encoding="UTF-8"?>
<svg id="letters" xmlns="http://www.w3.org/2000/svg" width="96" height="96" viewBox="0 0 96 96">
  <path id="U_x2B_006F" d="M48,16.1536c-14.5547,0-26.851,9.8177-30.6371,23.1757-.0187.071-.0457.1381-.06.2108-.7439,2.6959-1.1495,5.5305-1.1495,8.4597s.4056,5.7639,1.1495,8.4597c.0145.0739.0419.1422.061.2143,3.7873,13.3566,16.0826,23.1727,30.6362,23.1727,17.5605,0,31.8467-14.2861,31.8467-31.8467s-14.2861-31.8462-31.8467-31.8462ZM23.1533,47.9998c0-1.4601.1339-2.8886.3766-4.2803h48.9401c.2428,1.3917.3766,2.8202.3766,4.2803s-.1339,2.889-.3767,4.2808H23.53c-.2429-1.3918-.3767-2.8206-.3767-4.2808ZM48,23.1536c9.64,0,18.0093,5.5222,22.1271,13.5659H25.8729c4.1177-8.0437,12.4871-13.5659,22.1271-13.5659ZM48,72.8464c-9.6399,0-18.0092-5.5221-22.127-13.5659h44.2539c-4.1178,8.0438-12.4871,13.5659-22.127,13.5659Z"/>
</svg>