<?xml version="1.0" encoding="UTF-8"?>
<svg id="additional_letters" xmlns="http://www.w3.org/2000/svg" width="96" height="96" viewBox="0 0 96 96">
  <path id="U_x2B_0040" d="M48.0002,16.1536c-17.5605,0-31.8467,14.2861-31.8467,31.8462s14.2861,31.8467,31.8467,31.8467,31.8462-14.2861,31.8462-31.8467-14.2861-31.8462-31.8462-31.8462ZM60.6418,69.378v-6.5486c0-1.9331-1.5669-3.5-3.5-3.5h-13.1421v-25.2339h6.8394v18.2227c0,1.9331,1.5669,3.5,3.5,3.5s3.5-1.5669,3.5-3.5v-21.7227c0-1.9331-1.5669-3.5-3.5-3.5h-13.8394c-1.9331,0-3.5,1.5669-3.5,3.5v32.2339c0,1.9331,1.5669,3.5,3.5,3.5h13.1421v5.8632c-1.8139.423-3.7007.6539-5.6416.6539-13.7007,0-24.8467-11.146-24.8467-24.8467s11.146-24.8462,24.8467-24.8462,24.8462,11.146,24.8462,24.8462c0,9.0867-4.9055,17.0454-12.2046,21.3782Z"/>
</svg>