<?xml version="1.0" encoding="UTF-8"?>
<svg id="letters" xmlns="http://www.w3.org/2000/svg" width="96" height="96" viewBox="0 0 96 96">
  <path id="U_x2B_0074" d="M47.9998,16.1536c-11.2941,0-21.2264,5.9148-26.882,14.8043-.4099.4015-.7079.9074-.8817,1.4694-2.5947,4.6077-4.0825,9.9183-4.0825,15.5725s1.4878,10.9649,4.0825,15.5726c.1738.5622.4719,1.0684.8819,1.4699,5.6556,8.8894,15.5879,14.8041,26.8818,14.8041,17.5605,0,31.8467-14.2861,31.8467-31.8467s-14.2861-31.8462-31.8467-31.8462ZM54.0115,39.0471c1.7728,1.7756,2.7514,4.8633,2.772,8.7894-.1002,1.7169-.7847,8.1578-5.2837,10.4138v-20.7641c.9833.3469,1.8168.8647,2.5117,1.5609ZM44.4998,59.0442h-18.7478c-1.6595-3.3294-2.5984-7.0784-2.5984-11.0444s.9388-7.7146,2.5983-11.0439h18.7479v22.0884ZM47.9998,72.8464c-6.5988,0-12.6002-2.5907-17.0538-6.8022h17.0538c11.623,0,15.3716-11.0894,15.7725-17.7925.0103-.1079.0161-.2168.0161-.3271,0-.0012-.0004-.0023-.0004-.0035,0-.0011.0004-.0022.0004-.0033.0103-5.8672-1.6572-10.6445-4.8228-13.8159-2.7461-2.751-6.4355-4.146-10.9658-4.146h-17.0538c4.4536-4.2115,10.4551-6.8022,17.0538-6.8022,13.7007,0,24.8467,11.146,24.8467,24.8462s-11.146,24.8467-24.8467,24.8467Z"/>
</svg>