<?xml version="1.0" encoding="UTF-8"?>
<svg id="letters" xmlns="http://www.w3.org/2000/svg" width="96" height="96" viewBox="0 0 96 96">
  <path id="U_x2B_0079" d="M79.8464,47.9995c0-17.5601-14.2861-31.8462-31.8462-31.8462s-31.8467,14.2861-31.8467,31.8462,14.2814,31.8416,31.8378,31.8464c.002,0,.004.0007.0059.0007.0033,0,.0066-.0007.0099-.0007,17.5569-.0038,31.8392-14.2883,31.8392-31.8465ZM54.2211,72.0573l8.3035-15.734c.0095-.0181.0133-.0374.0225-.0555.062-.1226.1066-.2503.1533-.3782.0336-.0916.0745-.1812.1-.2739.0306-.1121.0443-.2266.0637-.3409.0189-.1108.0447-.2205.0527-.3316.0078-.1073-.0016-.2143-.0037-.3218-.0024-.1161.0022-.2322-.0117-.347-.0134-.1127-.0447-.2225-.0691-.3338-.0236-.1071-.04-.2153-.0735-.3197-.0335-.1047-.084-.204-.1277-.306-.0461-.1078-.0869-.217-.1438-.3199-.0464-.0837-.107-.1608-.1609-.2415-.0756-.1134-.149-.2271-.2382-.3318-.0132-.0156-.0215-.0336-.0352-.049l-11.4292-12.9419c-.049-.0555-.1078-.0959-.1595-.1476-.0515-.0515-.0918-.1102-.1472-.1591-.0346-.0306-.0745-.05-.1099-.079-.0959-.0784-.1956-.1472-.2977-.2139-.094-.0616-.1873-.1219-.2853-.1735-.1017-.0533-.2056-.0972-.3112-.14-.1072-.0436-.2134-.0857-.3234-.1181-.1042-.0306-.2091-.0517-.3153-.0725-.1148-.0225-.2285-.0438-.3444-.0547-.1073-.0101-.2138-.0105-.3217-.0108-.1156-.0002-.2299.0004-.3449.0115-.1086.0104-.2151.0306-.3227.0513-.1133.0217-.2252.0444-.3362.0773-.104.0308-.2045.071-.306.1118-.1108.0445-.2197.0904-.3262.1465-.0949.05-.1853.1086-.2764.1682-.104.0679-.2056.1377-.3032.2176-.0352.0287-.0748.048-.1092.0784-.0554.0489-.0956.1075-.1472.159-.0517.0517-.1105.0921-.1595.1476l-9.5972,10.8672c-1.2793,1.4487-1.1421,3.6606.3066,4.9404.6655.5879,1.4922.8765,2.3154.8765.9688,0,1.9331-.3999,2.625-1.1831l6.9736-7.8964,7.2054,8.159-9.267,17.5597c-12.7389-1.0522-22.785-11.7485-22.785-24.7544,0-12.1136,8.7161-22.2242,20.2052-24.4049l-12.5001,14.1544c-1.2793,1.4487-1.1421,3.6606.3066,4.9404.6655.5879,1.4922.8765,2.3154.8765.9688,0,1.9331-.3999,2.625-1.1831l11.8945-13.4686,11.8941,13.4686c.6919.7832,1.6558,1.1831,2.625,1.1831.8232,0,1.6499-.2886,2.3154-.8765,1.4487-1.2798,1.5859-3.4912.3066-4.9404l-12.4997-14.1544c11.4887,2.1807,20.2048,12.2913,20.2048,24.4049,0,11.5531-7.9258,21.2892-18.6253,24.0577Z"/>
</svg>