<?xml version="1.0" encoding="UTF-8"?>
<svg id="letters" xmlns="http://www.w3.org/2000/svg" width="96" height="96" viewBox="0 0 96 96">
  <path id="U_x2B_0072" d="M78.1009,58.3782c1.1257-3.2556,1.7455-6.745,1.7455-10.3784,0-17.5601-14.2861-31.8462-31.8462-31.8462s-31.8467,14.2861-31.8467,31.8462c0,3.6362.6208,7.1282,1.7481,10.3859.0255.0817.0506.1623.0821.2421,4.3856,12.3492,16.182,21.2187,30.0165,21.2187s25.6271-8.8668,30.0142-21.2133c.0333-.084.0598-.1689.0864-.2549ZM48.0002,23.1536c13.7002,0,24.8462,11.146,24.8462,24.8462,0,.6392-.0321,1.2706-.0798,1.8977-6.6993-6.1448-15.5424-9.6814-24.7664-9.6814s-18.0674,3.5368-24.7669,9.6816c-.0477-.6272-.0798-1.2587-.0798-1.8979,0-13.7002,11.146-24.8462,24.8467-24.8462ZM48.0002,72.8464c-10.1768,0-18.9394-6.1522-22.7761-14.9306,5.6003-6.7305,13.9783-10.6998,22.7761-10.6998s17.1753,3.9691,22.7757,10.6996c-3.8367,8.7785-12.5992,14.9307-22.7757,14.9307Z"/>
</svg>