<?xml version="1.0" encoding="UTF-8"?>
<svg id="numbers" xmlns="http://www.w3.org/2000/svg" width="96" height="96" viewBox="0 0 96 96">
  <path id="U_x2B_0037" d="M48.0005,16.1536c-17.5605,0-31.8467,14.2861-31.8467,31.8462s14.2861,31.8467,31.8467,31.8467,31.8457-14.2861,31.8457-31.8467-14.2861-31.8462-31.8457-31.8462ZM48.0005,23.1536c7.7123,0,14.6147,3.5324,19.1754,9.0639l-15.4903,16.8425-1.2105-1.2106c-1.3672-1.3672-3.582-1.3667-4.9492-.0005l-1.2113,1.2112-15.4902-16.8424c4.5609-5.5316,11.4637-9.0641,19.1761-9.0641ZM48.0006,55.2734l4.6577,4.6579c-3.0402.7576-6.2751.7576-9.3157,0l4.658-4.6578ZM48.0005,72.8464c-13.7002,0-24.8467-11.146-24.8467-24.8467,0-3.377.6799-6.5974,1.9056-9.5352l14.301,15.5494-4.6764,4.6762c-.0558.0558-.0953.1209-.1466.1795-.0391.0434-.0741.0903-.1111.136-.0981.1241-.1905.2496-.2694.3829-.0225.0368-.0521.0664-.0734.1043-.0377.067-.0574.1383-.0902.2065-.0375.081-.0754.1606-.1064.2437-.0696.1782-.1215.3578-.1603.5407-.0015.0073-.0033.0145-.0047.0219-.2983,1.4511.3362,2.9885,1.6965,3.7534,3.8232,2.1504,8.1738,3.2871,12.582,3.2871s8.7598-1.1367,12.5811-3.2871c1.3616-.7656,1.9957-2.3037,1.6964-3.7553-.001-.0056-.0025-.0111-.0036-.0167-.039-.1847-.0916-.3663-.1619-.5462-.0302-.0808-.0672-.1583-.1036-.2372-.0334-.0698-.0538-.1427-.0923-.2112-.0218-.0388-.052-.0691-.0751-.1067-.0774-.1303-.1679-.2531-.2637-.3746-.0394-.0486-.0767-.0986-.1183-.1447-.0503-.0573-.0889-.121-.1436-.1757l-4.6765-4.6766,14.3012-15.5496c1.2257,2.9379,1.9055,6.1584,1.9055,9.5353,0,13.7007-11.1455,24.8467-24.8457,24.8467Z"/>
</svg>