<?xml version="1.0" encoding="UTF-8"?>
<svg id="other_symbols" xmlns="http://www.w3.org/2000/svg" width="96" height="96" viewBox="0 0 96 96">
  <path id="U_x2B_0028" d="M62.1733,16.1538c-17.5605,0-31.8467,14.2861-31.8467,31.8467,0,8.7852,3.5762,16.7507,9.349,22.5181.0911.1003.191.1906.2936.28,5.7412,5.5927,13.5748,9.0477,22.204,9.0477,1.9331,0,3.5-1.5674,3.5-3.5V19.6538c0-1.9326-1.5669-3.5-3.5-3.5ZM58.6733,23.4051v8.238h-15.179c3.8296-4.3677,9.1591-7.3852,15.179-8.238ZM39.162,38.6431h19.5114v5.4506c-7.9894,3.0386-14.3298,9.0962-17.7382,16.7904-2.2889-3.7589-3.6085-8.17-3.6085-12.8835,0-3.3094.6556-6.4672,1.8353-9.3574ZM58.6733,51.7394v20.8555c-4.7294-.6699-9.033-2.6749-12.5184-5.6221,1.8977-6.6464,6.4427-12.1249,12.5184-15.2334Z"/>
</svg>