<?xml version="1.0" encoding="UTF-8"?>
<svg id="letters" xmlns="http://www.w3.org/2000/svg" width="96" height="96" viewBox="0 0 96 96">
  <path id="U_x2B_0066" d="M79.8467,47.9998c0-5.2676-1.2933-10.236-3.5671-14.6171-.0383-.0932-.0908-.1776-.1367-.2665-5.3524-10.0796-15.9565-16.9626-28.1429-16.9626-17.5605,0-31.8467,14.2861-31.8467,31.8462,0,14.6406,9.9335,26.9973,23.4124,30.7044.0715.0203.1404.045.2137.0609,2.624.7018,5.3783,1.0814,8.2206,1.0814,6.5181,0,12.5828-1.9715,17.6355-5.3449.0966-.0605.1923-.1205.2812-.1891,8.4023-5.7394,13.9299-15.3915,13.9299-26.3127ZM64.9797,66.115c-6.8425-12.3277-16.0957-16.3306-20.9612-17.6182v-10.2861h26.8149c1.2936,3.0058,2.0132,6.3146,2.0132,9.7891,0,7.1385-3.0303,13.579-7.8669,18.1152ZM23.1533,47.9998c0-13.7002,11.1465-24.8462,24.8467-24.8462,7.2327,0,13.7517,3.1083,18.2966,8.0571h-25.7781c-1.9326,0-3.5,1.5669-3.5,3.5v16.6782c0,1.8481,1.4365,3.3774,3.2812,3.4932.0443.0027,1.6439.131,4.0262,1.0479-2.6119,2.9608-5.6898,7.741-6.8452,14.5728-8.4556-3.9686-14.3275-12.561-14.3275-22.503ZM44.2612,72.5647c.9107-6.8154,4.2097-11.0253,6.2937-13.0531,2.8967,2.2676,5.9829,5.6392,8.6549,10.6515-3.3706,1.7119-7.1778,2.6833-11.2098,2.6833-1.2706,0-2.5189-.0969-3.7388-.2817Z"/>
</svg>