<?xml version="1.0" encoding="UTF-8"?>
<svg id="numbers" xmlns="http://www.w3.org/2000/svg" width="96" height="96" viewBox="0 0 96 96">
  <path id="U_x2B_0031" d="M73.5214,28.9716c-.0854-.1314-.1866-.2498-.2885-.3682-5.8278-7.5635-14.9679-12.4499-25.2327-12.4499-5.0656,0-9.8552,1.1945-14.1116,3.3077-.168.0722-.331.1514-.4844.2484-10.2356,5.3024-17.2507,15.9891-17.2507,28.2901,0,12.7388,7.521,23.7489,18.3531,28.8378.0206.0112.037.0269.058.0377.0454.0234.0939.0308.1399.0519,4.0494,1.8687,8.5509,2.9193,13.2957,2.9193,17.5601,0,31.8462-14.2861,31.8462-31.8467,0-7.1277-2.3541-13.7157-6.3251-19.0281ZM47.7581,58.8855l8.5976-16.7085c.0894-.1743.1641-.3555.2236-.542.0217-.0688,2.1977-6.4962,12.2274-7.191,2.5505,3.9015,4.0397,8.5568,4.0397,13.5557,0,3.9025-.9069,7.5963-2.517,10.8857h-22.5713ZM63.1021,28.2891c-9.3144,2.4748-12.4348,9.2263-13.0692,10.8757l-1.3762,2.6744c-3.7097-2.7303-9.5928-8.3824-9.9178-16.8884,2.8643-1.155,5.9883-1.7972,9.2613-1.7972,5.6776,0,10.9131,1.9185,15.1019,5.1355ZM23.1536,47.9998c0-7.6712,3.496-14.5399,8.9768-19.1012,1.8061,9.95,9.0969,16.309,13.2946,19.2213l-6.3213,12.2847c-.1564.2271-.2797.4759-.3795.7374l-4.0275,7.8269c-6.9316-4.4133-11.5432-12.1603-11.5432-20.9691ZM41.0823,71.8592l3.0739-5.9737h21.0643c-4.4698,4.3052-10.5389,6.9609-17.2202,6.9609-2.4008,0-4.7203-.349-6.918-.9872Z"/>
</svg>