<?xml version="1.0" encoding="UTF-8"?>
<svg id="numbers" xmlns="http://www.w3.org/2000/svg" width="96" height="96" viewBox="0 0 96 96">
  <path id="U_x2B_0038" d="M47.9998,16.1538c-17.5601,0-31.8462,14.2861-31.8462,31.8467s14.2861,31.8457,31.8462,31.8457,31.8467-14.2861,31.8467-31.8457-14.2861-31.8467-31.8467-31.8467ZM47.9998,42.5886l-4.6584-4.6583c3.0405-.7578,6.2761-.7578,9.317,0l-4.6586,4.6582ZM51.4998,72.5949v-23.608l9.8164-9.8156c.0558-.0558.0953-.1208.1466-.1793.039-.0433.0739-.0903.111-.1358.0985-.1245.1912-.2504.2703-.3842.0223-.0364.0516-.0659.0727-.1034.0371-.066.0565-.1364.0889-.2037.0381-.0823.0768-.1633.1082-.2477.069-.1769.1205-.3553.1592-.5369.0016-.0084.0037-.0167.0054-.0251.298-1.4509-.3365-2.9876-1.6967-3.7532-3.8223-2.1494-8.1729-3.2861-12.582-3.2861s-8.7598,1.1367-12.582,3.2861c-1.3596.7653-1.994,2.3013-1.6963,3.7517.0018.0095.0042.0188.0061.0283.0386.1802.0897.3574.158.533.0322.0865.0717.1696.1109.2538.0319.066.0508.1349.0873.1997.0273.0486.0611.091.0904.1378.0432.0713.0884.1406.1373.2092.0583.0799.1218.1535.1857.2272.0637.0754.1156.1574.1868.2285l9.8159,9.8155v23.608c-12.0482-1.7067-21.3462-12.0825-21.3462-24.5944,0-13.7002,11.146-24.8467,24.8462-24.8467s24.8467,11.1465,24.8467,24.8467c0,12.5119-9.298,22.8878-21.3467,24.5944Z"/>
</svg>