<?xml version="1.0" encoding="UTF-8"?>
<svg id="letters" xmlns="http://www.w3.org/2000/svg" width="96" height="96" viewBox="0 0 96 96">
  <path id="U_x2B_0067" d="M48,16.1536c-7.7654,0-14.8875,2.7971-20.42,7.4321-.1069.0842-.2185.1599-.3173.2583-.0178.0178-.0295.0391-.0469.0572-6.7672,5.8443-11.0625,14.4766-11.0625,24.0986,0,12.7074,7.4833,23.6958,18.2724,28.8013.0266.0141.0481.0339.0753.0474.0464.023.0956.0305.1425.0513,4.0651,1.8863,8.5881,2.9468,13.3565,2.9468,17.5605,0,31.8467-14.2861,31.8467-31.8467s-14.2861-31.8462-31.8467-31.8462ZM72.5954,44.4998h-26.2607c-1.236-3.519-4.2416-9.8878-11.3045-17.6826,3.778-2.3217,8.2197-3.6636,12.9698-3.6636,12.5119,0,22.8885,9.298,24.5954,21.3462ZM23.1533,47.9998c0-6.4309,2.4564-12.2985,6.4797-16.7152,9.1794,10.0446,10.5712,17.0747,10.6082,17.2753.0042.0257.0143.0487.019.0742.0173.0945.0459.184.0707.2757.0237.0879.0378.1803.0679.265-.0091-.0196-.0344-.077-.0629-.2057.0118.0565,1.0165,5.1643-5.8228,19.882-6.8293-4.4326-11.3599-12.1204-11.3599-20.8513ZM48,72.8464c-2.4794,0-4.8733-.3698-7.1345-1.049,4.7026-10.1041,6.1826-16.4636,6.4862-20.2977h25.2437c-1.7068,12.0486-12.0835,21.3467-24.5954,21.3467Z"/>
</svg>